<?xml version="1.0" encoding="utf-8"?>
<!-- Generator: Adobe Illustrator 24.1.2, SVG Export Plug-In . SVG Version: 6.00 Build 0)  -->
<svg version="1.1" id="Слой_1" xmlns="http://www.w3.org/2000/svg" xmlns:xlink="http://www.w3.org/1999/xlink" x="0px" y="0px"
	 viewBox="0 0 256 256" style="enable-background:new 0 0 256 256;" xml:space="preserve">
<style type="text/css">
	.st0{fill:#9A9999;}
	.st1{fill:#F2F2F2;}
</style>
<g id="_x35_12_1_">
	<g id="Outer_3_">
		<path id="shadow_3_" class="st0" d="M230.3,223v-8.1c-4,0-7.3-3.3-7.3-7.3c0-4,3.3-7.3,7.3-7.3v-8.1c-4,0-7.3-3.3-7.3-7.3
			c0-4,3.3-7.3,7.3-7.3v-8.1c-4,0-7.3-3.3-7.3-7.3s3.3-7.3,7.3-7.3v-8.1c-4,0-7.3-3.3-7.3-7.3c0-4,3.3-7.3,7.3-7.3v-8.1
			c-4,0-7.3-3.3-7.3-7.3c0-4,3.3-7.3,7.3-7.3v-8.1c-4,0-7.3-3.3-7.3-7.3c0-4,3.3-7.3,7.3-7.3v-8.1c-4,0-7.3-3.3-7.3-7.3
			c0-4,3.3-7.3,7.3-7.3v-8.1c-4,0-7.3-3.3-7.3-7.3s3.3-7.3,7.3-7.3v-8.1c-1.9,0-3.8-0.8-5.1-2.1c-1.4-1.4-2.1-3.2-2.1-5.1h-8.1
			c0,4-3.3,7.3-7.3,7.3c-4,0-7.3-3.3-7.3-7.3h-8.1c0,4-3.3,7.3-7.3,7.3c-4,0-7.3-3.3-7.3-7.3h-8.1c0,4-3.3,7.3-7.3,7.3
			c-4,0-7.3-3.3-7.3-7.3h-8.1c0,4-3.3,7.3-7.3,7.3c-4,0-7.3-3.3-7.3-7.3h-8.1c0,4-3.3,7.3-7.3,7.3c-4,0-7.3-3.3-7.3-7.3h-8.1
			c0,4-3.3,7.3-7.3,7.3s-7.3-3.3-7.3-7.3h-8.1c0,4-3.3,7.3-7.3,7.3c-4,0-7.3-3.3-7.3-7.3h-8.1c0,4-3.3,7.3-7.3,7.3
			c-4,0-7.3-3.3-7.3-7.3h-8.1c0,1.9-0.8,3.8-2.1,5.1c-1.4,1.4-3.2,2.1-5.1,2.1v8.1c4,0,7.3,3.3,7.3,7.3s-3.3,7.3-7.3,7.3v8.1
			c4,0,7.3,3.3,7.3,7.3c0,4-3.3,7.3-7.3,7.3v8.1c4,0,7.3,3.3,7.3,7.3c0,4-3.3,7.3-7.3,7.3v8.1c4,0,7.3,3.3,7.3,7.3
			c0,4-3.3,7.3-7.3,7.3v8.1c4,0,7.3,3.3,7.3,7.3c0,4-3.3,7.3-7.3,7.3v8.1c4,0,7.3,3.3,7.3,7.3c0,4-3.3,7.3-7.3,7.3v8.1
			c4,0,7.3,3.3,7.3,7.3s-3.3,7.3-7.3,7.3v8.1c4,0,7.3,3.3,7.3,7.3c0,4-3.3,7.3-7.3,7.3v8.1c1.9,0,3.8,0.8,5.1,2.1
			c1.4,1.4,2.1,3.2,2.1,5.1h8.1c0-4,3.3-7.3,7.3-7.3s7.3,3.3,7.3,7.3h8.1c0-4,3.3-7.3,7.3-7.3c4,0,7.3,3.3,7.3,7.3h8.1
			c0-4,3.3-7.3,7.3-7.3c4,0,7.3,3.3,7.3,7.3h8.1c0-4,3.3-7.3,7.3-7.3c4,0,7.3,3.3,7.3,7.3h8.1c0-4,3.3-7.3,7.3-7.3
			c4,0,7.3,3.3,7.3,7.3h8.1c0-4,3.3-7.3,7.3-7.3s7.3,3.3,7.3,7.3h8.1c0-4,3.3-7.3,7.3-7.3c4,0,7.3,3.3,7.3,7.3h8.1
			c0-4,3.3-7.3,7.3-7.3c4,0,7.3,3.3,7.3,7.3h8.1c0-1.9,0.8-3.8,2.1-5.1C226.5,223.8,228.4,223,230.3,223z"/>
		<path id="outer_3_" class="st1" d="M229.2,221.9v-8.1c-4,0-7.3-3.3-7.3-7.3c0-4,3.3-7.3,7.3-7.3v-8.1c-4,0-7.3-3.3-7.3-7.3
			c0-4,3.3-7.3,7.3-7.3v-8.1c-4,0-7.3-3.3-7.3-7.3s3.3-7.3,7.3-7.3V146c-4,0-7.3-3.3-7.3-7.3c0-4,3.3-7.3,7.3-7.3v-8.1
			c-4,0-7.3-3.3-7.3-7.3c0-4,3.3-7.3,7.3-7.3v-8.1c-4,0-7.3-3.3-7.3-7.3c0-4,3.3-7.3,7.3-7.3v-8.1c-4,0-7.3-3.3-7.3-7.3
			c0-4,3.3-7.3,7.3-7.3v-8.1c-4,0-7.3-3.3-7.3-7.3s3.3-7.3,7.3-7.3V33c-1.9,0-3.8-0.8-5.1-2.1c-1.4-1.4-2.1-3.2-2.1-5.1h-8.1
			c0,4-3.3,7.3-7.3,7.3s-7.3-3.3-7.3-7.3h-8.1c0,4-3.3,7.3-7.3,7.3c-4,0-7.3-3.3-7.3-7.3h-8.1c0,4-3.3,7.3-7.3,7.3
			c-4,0-7.3-3.3-7.3-7.3H146c0,4-3.3,7.3-7.3,7.3c-4,0-7.3-3.3-7.3-7.3h-8.1c0,4-3.3,7.3-7.3,7.3c-4,0-7.3-3.3-7.3-7.3h-8.1
			c0,4-3.3,7.3-7.3,7.3c-4,0-7.3-3.3-7.3-7.3h-8.1c0,4-3.3,7.3-7.3,7.3c-4,0-7.3-3.3-7.3-7.3h-8.1c0,4-3.3,7.3-7.3,7.3
			c-4,0-7.3-3.3-7.3-7.3H33c0,1.9-0.8,3.8-2.1,5.1S27.6,33,25.7,33v8.1c4,0,7.3,3.3,7.3,7.3s-3.3,7.3-7.3,7.3v8.1
			c4,0,7.3,3.3,7.3,7.3c0,4-3.3,7.3-7.3,7.3v8.1c4,0,7.3,3.3,7.3,7.3c0,4-3.3,7.3-7.3,7.3v8.1c4,0,7.3,3.3,7.3,7.3
			c0,4-3.3,7.3-7.3,7.3v8.1c4,0,7.3,3.3,7.3,7.3c0,4-3.3,7.3-7.3,7.3v8.1c4,0,7.3,3.3,7.3,7.3c0,4-3.3,7.3-7.3,7.3v8.1
			c4,0,7.3,3.3,7.3,7.3s-3.3,7.3-7.3,7.3v8.1c4,0,7.3,3.3,7.3,7.3c0,4-3.3,7.3-7.3,7.3v8.1c1.9,0,3.8,0.8,5.1,2.1
			c1.4,1.4,2.1,3.2,2.1,5.1h8.1c0-4,3.3-7.3,7.3-7.3s7.3,3.3,7.3,7.3h8.1c0-4,3.3-7.3,7.3-7.3c4,0,7.3,3.3,7.3,7.3h8.1
			c0-4,3.3-7.3,7.3-7.3c4,0,7.3,3.3,7.3,7.3h8.1c0-4,3.3-7.3,7.3-7.3c4,0,7.3,3.3,7.3,7.3h8.1c0-4,3.3-7.3,7.3-7.3
			c4,0,7.3,3.3,7.3,7.3h8.1c0-4,3.3-7.3,7.3-7.3s7.3,3.3,7.3,7.3h8.1c0-4,3.3-7.3,7.3-7.3c4,0,7.3,3.3,7.3,7.3h8.1
			c0-4,3.3-7.3,7.3-7.3c4,0,7.3,3.3,7.3,7.3h8.1c0-1.9,0.8-3.8,2.1-5.1C225.4,222.7,227.2,221.9,229.2,221.9z"/>
	</g>
	<g>
		<path d="M138.4,109.8c0-5.4-3.8-9.6-11-9.6c-5.1,0-9.4,2.2-13,5.7l-4.9-4.5c4.5-4.7,10.7-8.1,18.4-8.1c11.1,0,18.6,6.1,18.6,15.6
			c0,13.6-18.1,16.4-16.4,29.3h-7.3C120.4,124,138.4,120,138.4,109.8z M119.8,154.9c0-4.8,3.4-7.7,7.4-7.7c4,0,7.4,2.9,7.4,7.7
			c0,4.8-3.4,7.8-7.4,7.8C123.2,162.7,119.8,159.7,119.8,154.9z"/>
	</g>
</g>
</svg>
